<?xml version="1.0" encoding="UTF-8"?><svg id="Layer_1" data-name="Layer 1" xmlns="http://www.w3.org/2000/svg" viewBox="0 0 1000 1000" x="0px" y="0px" width="1000px" height="1000px" version="1.1" xmlns:xlink="http://www.w3.org/1999/xlink"><ellipse cx="500" cy="836.802" rx="258.345" ry="45.198" fill="#e4e8ec"/><path d="M550,616.888V185a50,50,0,0,0-50-50h0a50,50,0,0,0-50,50V616.888a120,120,0,1,0,100,0Z" fill="#fff"/><path d="M500,849a123.015,123.015,0,0,1-53-234.02V185a53,53,0,0,1,106,0V614.98A123.015,123.015,0,0,1,500,849Zm0-711a47.053,47.053,0,0,0-47,47V616.888a3,3,0,0,1-1.748,2.726,117,117,0,1,0,97.5,0A3,3,0,0,1,547,616.888V185A47.053,47.053,0,0,0,500,138Z" fill="#171819"/><path d="M500,826a100.016,100.016,0,0,1-41.657-190.936L470,629.714V340.831a30,30,0,0,1,60,0V629.714l11.657,5.35A100.016,100.016,0,0,1,500,826Z" fill="#ff4f7c"/><path d="M611,275.939H583.879a6,6,0,0,1,0-12H611a6,6,0,0,1,0,12Z" fill="#171819"/><path d="M611,338.879H583.879a6,6,0,0,1,0-12H611a6,6,0,0,1,0,12Z" fill="#171819"/><path d="M638,401.818H583.879a6,6,0,0,1,0-12H638a6,6,0,0,1,0,12Z" fill="#171819"/><path d="M611,464.758H583.879a6,6,0,0,1,0-12H611a6,6,0,0,1,0,12Z" fill="#171819"/><path d="M611,527.7H583.879a6,6,0,0,1,0-12H611a6,6,0,0,1,0,12Z" fill="#171819"/><path d="M638,590.637H583.879a6,6,0,0,1,0-12H638a6,6,0,0,1,0,12Z" fill="#171819"/><path d="M638,213H583.879a6,6,0,0,1,0-12H638a6,6,0,0,1,0,12Z" fill="#171819"/><path d="M449,341.727l-25.908-17.361v-8.4a37.243,37.243,0,0,0-37.243-37.243H280.334a37.242,37.242,0,0,0-37.242,37.243v51.514a37.242,37.242,0,0,0,37.242,37.243H385.849a37.243,37.243,0,0,0,37.243-37.243v-8.4Z" fill="#ffb800"/><text transform="translate(269 378)" font-size="89.273" fill="#171819" font-family="Arial-BoldMT, Arial" font-weight="700">90°</text><path d="M385.85,407.727H280.334a40.288,40.288,0,0,1-40.242-40.243V315.97a40.288,40.288,0,0,1,40.242-40.243H385.85a40.288,40.288,0,0,1,40.242,40.243v6.795l24.578,16.47a3,3,0,0,1,0,4.984l-24.578,16.47v6.795A40.288,40.288,0,0,1,385.85,407.727Zm-105.516-126a34.281,34.281,0,0,0-34.242,34.243v51.514a34.281,34.281,0,0,0,34.242,34.243H385.85a34.282,34.282,0,0,0,34.242-34.243v-8.4a3,3,0,0,1,1.33-2.492l22.189-14.869-22.189-14.869a3,3,0,0,1-1.33-2.492v-8.4a34.282,34.282,0,0,0-34.242-34.243Z" fill="#171819"/></svg>